<svg width="191" height="97" viewBox="0 0 191 97" fill="none" xmlns="http://www.w3.org/2000/svg">
<g clip-path="url(#clip0_65_42)">
<path d="M0.411508 74.2508C1.48084 79.6221 6.16948 82.6238 11.5984 81.123C13.6548 80.491 15.5467 79.5432 17.4386 78.4373C19.3305 77.3314 21.2224 76.1466 23.3611 75.3567C24.2659 74.9617 25.253 74.6458 26.2401 74.5668C28.3788 74.4088 29.2836 74.8827 30.1884 76.6995C30.8465 78.0423 31.34 79.5432 31.9158 80.965C32.6561 82.8607 33.3964 84.6775 34.6303 86.3363C38.7431 91.7866 46.8043 92.1816 51.0816 87.4422C52.151 86.2573 53.2203 84.9935 54.2896 83.7296C55.7702 81.9919 57.4154 80.4121 59.3895 79.2272C64.5717 76.1466 67.862 76.6205 71.728 81.202C73.6199 83.4137 75.2651 85.7834 77.157 88.0741C79.7069 91.3127 82.9149 93.8404 86.8633 95.4202C94.1841 98.3428 104.137 98.3428 110.224 89.4169C111.952 86.8892 114.09 84.5985 116.147 82.3078C120.013 77.8054 125.113 75.5936 131.2 75.5936C136.793 75.5936 142.304 76.3836 147.651 78.1213C149.872 78.8322 152.093 79.3852 154.396 79.7011C157.357 80.0961 160.154 79.6221 162.704 77.8844C164.02 77.0155 165.336 76.2256 166.735 75.5147C169.284 74.3298 171.917 73.9348 174.631 75.1987C175.371 75.5147 176.194 75.7516 177.017 75.9096C182.857 77.2524 188.533 74.4878 190.507 69.5114C191.494 66.8257 191.494 64.1401 190.342 61.5334C188.039 56.162 184.091 52.3705 178.25 50.4748C174.302 49.2109 170.272 48.895 166.159 48.9739C160.483 49.1319 154.972 50.6327 149.625 52.2915C148.803 52.5285 147.98 53.0024 146.911 52.9235C146.582 49.4479 146.253 46.1303 145.924 42.8127C145.595 39.3371 145.266 35.7826 144.772 32.307C144.443 29.7793 143.374 28.9104 140.906 28.6735C140.166 28.5945 139.096 29.1474 138.603 28.1995C138.274 27.4096 138.274 26.4617 138.191 25.5928C138.191 24.8819 138.767 24.487 139.096 23.934C140.741 21.1694 141.153 18.2467 140.083 15.1661C138.767 11.3746 136.053 8.37296 133.338 5.52931C132.269 4.42345 130.953 4.8184 130.624 6.3982C129.884 9.55781 128.814 12.7174 128.567 16.035C128.485 17.6148 128.65 19.1946 129.143 20.7744C129.884 23.2231 131.364 25.1189 133.996 25.7508C135.477 26.0668 135.724 27.0936 135.724 28.1995C135.806 29.4634 134.654 29.2264 133.996 29.4634C131.529 30.4112 130.871 31.3591 131.282 33.8078C131.364 34.3607 131.529 34.9137 131.611 35.4666C132.762 40.206 134.079 44.8664 135.559 49.6059C136.053 51.1857 136.546 52.8445 136.875 54.5033C137.204 56.32 137.204 56.399 135.477 56.952C131.446 58.3738 127.334 59.7956 123.221 61.0594C119.601 62.1653 115.9 63.1132 111.705 63.6661C112.034 61.2964 112.281 59.2427 112.61 57.1889C113.679 50.9487 114.584 44.7085 115.324 38.4682C115.735 34.9137 115.242 34.2028 111.623 33.3339C110.389 33.0179 110.553 32.307 110.635 31.5171C110.718 30.7272 111.458 30.3322 111.952 29.8583C113.679 28.1995 114.419 26.1458 114.502 23.7761C114.666 18.6417 112.692 14.2972 109.402 10.3477C108.332 9.08387 107.098 9.24185 106.523 10.7427C104.96 14.8502 103.644 19.1156 103.808 23.5391C103.89 26.1458 104.631 28.4365 107.098 29.8583C108.25 30.4902 107.674 31.3591 107.756 32.149C107.839 33.0969 107.016 33.0969 106.358 33.1759C103.068 33.6498 102.081 35.3086 101.752 38.2313C101.258 41.7858 100.929 45.3404 100.765 48.9739C100.6 53.3974 100.189 57.7419 99.8598 62.0863C99.7776 63.5871 99.6131 63.6661 98.0502 63.4292C96.405 63.1132 94.7599 62.7972 93.197 62.3233C82.6682 59.4796 72.5506 55.2932 62.1863 51.8176C60.8702 51.3436 60.7879 50.8697 61.1169 49.6849C62.0218 46.6832 62.7621 43.6816 63.5024 40.601C64.4895 36.8884 65.3943 33.1759 65.8878 29.3054C66.2991 25.9878 65.7233 25.2769 62.2685 24.566C62.104 24.566 62.0218 24.408 61.775 24.329C61.6105 22.9072 62.5153 21.6433 62.6798 20.2215C62.7621 19.7476 63.2556 19.6686 63.5846 19.5106C67.533 17.9308 69.0958 14.8502 69.4249 11.0586C69.6716 7.89902 69.0958 4.8184 68.191 1.81677C67.533 -0.315965 66.2169 -0.631926 64.5717 1.02687C61.6927 3.94951 59.5541 7.42508 58.4025 11.2956C57.5799 14.0603 57.3331 16.8249 59.6363 19.1946C60.0476 19.6686 59.9653 20.0635 59.8008 20.5375C59.5541 21.3274 59.225 22.0383 59.1428 22.8282C58.9783 24.171 58.4025 24.7239 56.9218 24.7239C54.0429 24.7239 52.2332 26.1458 51.5752 28.8314C51.2461 30.3322 50.7526 31.7541 50.3413 33.2549C49.3542 37.3624 48.4494 41.5489 47.5446 45.6563C47.2978 46.7622 46.9688 47.1572 45.5704 46.8412C39.6479 45.4984 33.6432 44.8664 27.474 45.7353C21.2224 46.6042 15.1355 47.8681 10.2001 51.9756C3.53726 57.8208 -1.4804 64.535 0.411508 74.2508ZM140.824 54.8982C140.577 55.1352 140.083 55.4511 139.754 54.9772C139.59 54.7402 139.425 54.2663 139.59 54.1083C141.153 52.3705 141.728 50.0798 143.456 48.184C144.525 51.4226 142.469 53.0814 140.824 54.8982ZM142.222 47.1572C141.235 48.658 140.33 50.2378 139.261 52.0546C138.356 50.3168 138.356 48.9739 139.261 47.5521C140.495 45.6563 141.482 43.6816 142.716 41.3909C143.538 43.6816 143.374 45.4194 142.222 47.1572ZM142.222 38.4682C141.153 41.3909 139.59 44.0765 137.78 46.9992C137.204 46.0513 136.958 45.4984 137.204 44.8664C138.685 41.1539 140.166 37.5204 141.728 33.6498C142.551 35.6246 142.716 37.1254 142.222 38.4682ZM131.282 16.5879C131.364 14.0603 131.94 11.6116 132.927 9.00488C134.654 10.9006 136.053 12.6384 137.04 14.6922C137.369 15.3241 137.533 15.798 136.793 16.351C135.806 17.0619 136.217 18.4837 135.148 19.2736C133.914 18.7997 133.256 17.3778 131.775 17.4568C131.282 17.5358 131.282 16.9829 131.282 16.5879ZM133.503 22.5912C132.351 21.7223 131.611 20.6954 131.858 19.1946C132.763 19.0366 133.092 19.7476 133.585 20.0635C135.23 21.2484 136.135 21.0114 137.122 19.2736C137.287 18.9577 137.204 18.4837 137.698 18.3257C138.027 19.5106 137.698 20.5375 137.204 21.5643C136.464 23.5391 135.23 23.855 133.503 22.5912ZM134.983 36.4935C134.243 35.7826 134.325 35.2296 134.243 34.6767C133.585 31.991 133.585 31.991 136.875 31.5961C136.464 33.2549 135.724 34.7557 134.983 36.4935ZM136.629 42.4967C135.641 41.1539 135.312 39.8901 135.971 38.4682C136.711 36.5725 137.616 34.5977 138.191 32.623C138.685 31.2011 139.508 30.9642 141.07 31.4381C139.508 35.2296 138.109 38.7842 136.629 42.4967ZM111.869 43.8396C110.8 42.0228 110.8 42.0228 112.198 41.3119C112.527 42.1018 112.281 42.8127 111.869 43.8396ZM108.085 54.7402C109.977 57.1099 109.977 59.5586 108.826 62.2443C105.618 60.1116 105.453 57.8998 108.085 54.7402ZM108.168 63.8241C106.44 64.377 104.877 64.535 102.986 64.377C103.726 63.1922 104.384 62.0863 105.124 60.8225C106.276 61.8493 106.852 63.1922 108.168 63.8241ZM109.319 53.0814C109.237 52.5285 109.566 52.1335 110.06 52.0546C110.8 51.9756 110.718 52.5285 110.635 53.0024C110.553 53.5554 110.389 54.0293 110.306 54.8192C109.484 54.3453 109.402 53.7133 109.319 53.0814ZM109.402 50.6327C108.661 50.6327 108.579 49.7638 108.332 49.2109C107.263 46.9992 108.826 45.5774 109.648 43.7606C111.787 45.2614 111.54 47.1572 111.047 49.1319C110.882 50.0008 110.306 50.6327 109.402 50.6327ZM111.376 35.7036C112.116 35.7036 112.61 36.0195 112.445 36.8884C112.116 38.2313 111.458 39.3371 110.306 40.9169C109.566 39.1002 109.731 37.8363 109.813 36.4935C109.813 35.2296 110.718 35.6246 111.376 35.7036ZM106.852 19.3526C107.263 17.4568 107.51 15.4821 108.579 13.5863C110.389 15.6401 111.047 17.9308 111.623 20.3795C111.787 21.2484 111.376 21.7223 110.718 22.1173C110.06 22.5912 109.484 22.1963 108.99 21.7223C108.497 21.3274 108.003 20.8534 107.427 20.5375C106.852 20.3005 106.687 19.9055 106.852 19.3526ZM107.592 26.7777C106.769 25.8298 106.44 24.329 106.687 21.8803C108.25 23.2231 109.566 24.408 111.623 23.4601C111.869 24.8029 111.458 25.7508 110.964 26.6197C110.142 28.1995 108.908 28.2785 107.592 26.7777ZM108.085 38.8632C109.402 41.2329 108.497 43.2077 107.098 45.1824C105.7 42.6547 105.947 41.1539 108.085 38.8632ZM107.839 35.7036C107.181 37.5993 105.947 39.1002 104.384 40.9169C104.384 36.4935 104.795 35.8616 107.839 35.7036ZM104.302 42.5757C105.042 43.9186 105.124 45.4194 105.947 46.6832C106.029 46.8412 105.947 47.1572 105.865 47.3151C105.207 48.5 104.713 49.7638 103.644 50.7117C103.726 48.0261 103.644 45.2614 104.302 42.5757ZM103.232 56.399C103.232 54.8982 103.15 53.4764 104.631 52.2915C105.453 51.6596 105.947 50.4748 106.523 49.5269C107.592 50.6327 107.674 51.7386 106.934 53.0024C106.194 54.3453 105.618 55.7671 104.466 56.873C104.219 57.1099 103.973 57.2679 103.561 57.1889C103.15 57.0309 103.232 56.715 103.232 56.399ZM102.903 59.1637C102.986 58.6897 103.479 58.6897 103.89 58.7687C104.302 58.9267 104.219 59.2427 104.137 59.4796C103.89 60.1116 103.726 60.8225 102.986 61.5334C102.657 60.5065 102.739 59.7956 102.903 59.1637ZM65.9701 3.55456C66.6281 5.76628 66.9572 7.50407 66.9572 9.39983C66.9572 10.1107 66.7926 10.5847 66.0523 10.9006C65.1475 11.2956 65.1475 10.5057 64.9007 10.1107C64.2427 9.00488 63.3379 9.24185 62.0218 9.95277C63.0088 7.50407 64.1604 5.68729 65.9701 3.55456ZM60.8702 13.1124C61.0347 11.8485 62.5976 12.0065 63.3379 10.7427C64.1604 12.3225 64.983 12.9544 66.5459 12.7174C65.8878 14.8502 64.9007 16.351 62.8443 17.1409C61.8572 17.5358 61.2814 17.2199 61.0347 16.272C60.7879 15.1661 60.7057 14.1392 60.8702 13.1124ZM59.1428 27.1726C57.5799 28.6735 56.0993 29.6213 54.3719 30.3322C54.7832 27.4886 55.1945 27.1726 59.1428 27.1726ZM53.3848 33.0179C53.4671 32.465 53.8783 32.149 54.2896 31.991C56.7573 31.0432 58.7315 29.5423 60.7057 27.9625C61.5282 27.3306 62.3508 26.8567 63.4201 27.8835C60.3766 31.4381 57.2509 34.9137 52.5622 37.0464C52.5622 35.4666 53.2203 34.2818 53.3848 33.0179ZM53.9606 37.9943C56.346 37.2044 58.1557 35.4666 59.9653 33.8078C60.8702 33.0179 61.6927 32.149 62.7621 31.2011C62.7621 34.2028 61.9395 36.3355 59.3895 37.8363C56.9218 39.3371 54.5364 41.0749 51.4929 41.9438C51.4929 40.048 51.8219 38.7052 53.9606 37.9943ZM53.3026 42.8917C56.1815 42.0228 58.567 40.285 61.1992 38.3103C60.9524 41.0749 60.3766 43.1287 57.9089 44.4715C55.5235 45.7353 53.138 46.7622 50.3413 47.2362C50.2591 44.9454 50.9994 43.6026 53.3026 42.8917ZM58.4847 49.6059C58.3202 50.3168 57.8267 50.1588 57.3331 50.0008C55.8525 49.5269 54.3719 49.0529 52.3977 48.342C55.1122 47.5521 57.3331 46.6832 59.4718 45.1824C59.5541 46.9992 58.8137 48.263 58.4847 49.6059ZM42.5269 48.816C50.4236 50.1588 57.8267 52.9235 65.312 55.5301C69.5071 57.0309 73.7022 58.6107 77.8973 60.1116C78.7199 60.4275 79.3779 61.1384 80.365 61.1384C82.2569 61.4544 84.1488 61.8493 85.7939 62.9552H85.8762V63.0342V62.9552C86.0407 62.9552 86.123 62.8762 86.2875 62.8762C86.5342 62.9552 87.0278 62.7972 86.9455 63.1922C86.8633 63.5081 86.3697 63.3502 86.123 63.2712C86.0407 63.1922 85.9585 63.1132 85.8762 62.9552C85.8762 62.9552 85.8762 62.9552 85.7939 62.9552C85.7939 62.9552 85.7117 62.9552 85.7117 62.8762C83.6553 62.9552 81.6811 62.4023 79.7892 61.6914C79.6247 61.6914 79.5424 61.6124 79.3779 61.5334C78.5554 61.4544 77.5683 61.3754 77.4038 62.4023C77.157 63.7451 78.3086 64.0611 79.2134 64.2191C85.0536 65.6409 90.8116 66.9837 96.8986 67.1417C107.51 67.2997 117.71 65.5619 127.745 62.1653C135.806 59.4006 143.785 56.557 152.011 54.1083C157.44 52.5285 162.951 51.2647 168.626 51.4226C171.423 51.5016 174.22 51.8966 176.934 52.7655C181.952 54.2663 185.325 57.5049 187.463 62.0073C188.368 63.9031 188.533 65.8778 187.957 67.8526C186.805 71.8021 182.446 74.1718 177.921 73.3029C176.852 73.066 175.783 72.75 174.878 72.355C172.246 71.2492 169.696 71.4072 167.146 72.2761C165.254 72.908 163.444 73.7769 161.881 74.9617C159.085 77.0945 155.959 77.1735 152.669 76.5415C150.119 76.0676 147.733 75.1987 145.266 74.4878C139.261 72.829 133.174 72.434 127.005 73.066C121.576 73.6979 117.381 76.4625 114.008 80.4121C111.952 82.7028 109.977 85.0725 108.085 87.5212C102.739 94.3933 95.3357 96.1311 87.1923 92.4976C83.7375 90.9177 81.023 88.548 78.7199 85.6254C77.2392 83.8086 75.8409 81.9129 74.4425 80.0171C73.7022 79.0692 72.8796 78.1213 71.9748 77.3314C68.8491 74.4088 65.312 73.6979 61.1992 75.1987C57.7444 76.5415 54.8654 78.6743 52.5622 81.4389C51.4106 82.7818 50.2591 84.1246 49.1075 85.4674C46.2285 88.864 40.0592 88.627 37.098 84.7565C35.9464 83.2557 35.2883 81.5179 34.548 79.8591C33.89 78.2003 33.3142 76.5415 32.4916 74.9617C31.4223 72.75 29.4481 71.6441 26.8982 71.7231C25.4175 71.7231 23.9369 72.0391 22.5386 72.592C20.3176 73.4609 18.2612 74.6458 16.2048 75.9096C14.4774 76.9365 12.75 77.8844 10.8581 78.4373C7.40332 79.3852 4.93563 77.8054 3.61952 74.5668C2.22115 71.8811 2.46792 69.1164 3.37275 66.3518C6.00496 58.2158 11.4339 52.6075 20.0709 50.0008C27.474 47.7101 34.9593 47.5521 42.5269 48.816Z" fill="white"/>
<path d="M83.5731 85.0725C86.452 87.9161 89.9068 89.4169 94.1019 89.259C98.8728 89.259 102.903 87.6792 106.111 84.1246C108.332 81.7549 109.648 78.7533 112.281 76.6205C112.61 76.3836 112.774 75.9096 112.363 75.5937C112.034 75.2777 111.623 75.3567 111.211 75.5937C110.06 76.3836 109.155 77.4894 108.415 78.5953C107.016 80.649 105.453 82.6238 103.644 84.3616C101.999 85.8624 100.024 86.8893 97.8035 87.3632C92.539 88.4691 87.9327 87.5212 84.2311 83.4927C83.9021 83.0977 83.5731 82.6238 82.9973 83.0187C82.4215 83.4137 82.6682 84.0456 82.9973 84.5195C83.244 84.7565 83.4085 84.9145 83.5731 85.0725Z" fill="white"/>
<path d="M6.16919 69.9063C6.16919 73.2239 7.32078 74.7248 10.1998 75.2777C10.8578 75.4357 11.4336 75.3567 11.5981 74.7248C11.7626 74.0928 11.1046 74.0138 10.6111 73.8559C7.64981 72.671 7.23853 71.9601 7.97884 68.9585C9.21269 63.8241 12.0094 59.6376 16.5335 56.478C17.1093 56.0831 18.5077 56.0041 17.6851 54.8982C17.0271 54.0293 16.2045 54.9772 15.5465 55.2932C15.2174 55.4511 14.9707 55.6881 14.7239 55.8461C10.5288 58.9267 7.97884 63.0342 6.58047 67.8526C6.25145 68.6425 6.16919 69.5114 6.16919 69.9063Z" fill="white"/>
<path d="M178.991 71.1702C182.857 71.4072 185.9 68.4845 185.818 64.614C185.818 61.4544 183.186 57.9788 179.978 56.952C179.731 56.873 179.484 56.794 179.237 56.794C178.908 56.794 178.579 56.952 178.415 57.2679C178.25 57.6629 178.497 57.8998 178.744 58.0578C179.237 58.3738 179.813 58.5318 180.307 58.7687C182.034 59.7166 183.268 61.0594 183.926 62.8762C185.078 66.1148 183.268 69.0375 179.813 69.6694C179.484 69.7484 179.155 69.7484 178.826 69.7484C178.332 69.8274 177.839 70.0643 178.003 70.6962C178.086 71.1702 178.579 71.1702 178.991 71.1702Z" fill="white"/>
<path d="M154.643 74.6458C155.136 74.7247 155.63 74.7247 156.123 74.6458C158.509 74.4088 160.565 73.4609 162.457 72.0391C163.444 71.3282 164.349 70.4593 165.418 69.8274C166.57 69.0375 167.886 68.4845 169.367 68.7215C170.025 68.8005 171.012 69.4324 171.094 68.2476C171.176 67.3787 170.107 67.2997 169.367 67.2207C169.202 67.2207 169.037 67.2207 168.873 67.2207C167.475 67.1417 166.241 67.4577 165.089 68.1686C164.184 68.7215 163.28 69.3534 162.539 70.0643C160.483 71.8021 158.18 72.987 155.465 73.2239C155.218 73.2239 154.972 73.2239 154.725 73.3029C154.396 73.3819 154.067 73.5399 154.149 73.9348C154.149 74.3298 154.314 74.6458 154.643 74.6458Z" fill="white"/>
<path d="M56.9218 75.7516C60.1298 73.3819 63.6668 71.7231 67.8619 72.434C68.2732 72.592 68.7667 72.592 68.9313 72.1971C69.178 71.6441 68.849 71.3282 68.3555 71.0912C67.6974 70.7752 66.9571 70.6962 66.2168 70.6962C63.7491 70.6173 61.5281 71.4862 59.3895 72.513C58.1556 73.066 56.8395 73.6979 55.8524 74.7248C55.4412 75.1197 55.1121 75.6726 55.6057 76.2256C56.0992 76.7785 56.5105 76.0676 56.9218 75.7516Z" fill="white"/>
<path d="M136.957 63.1922C137.204 63.1132 137.78 63.0342 138.273 62.7972C141.317 61.3754 144.196 59.7166 147.404 58.4528C147.568 58.3738 147.651 58.2948 147.815 58.2158C148.226 57.8998 148.556 57.5049 148.226 57.0309C147.98 56.636 147.486 56.715 147.157 56.873C143.373 58.2948 140.001 60.5855 136.217 61.9283C135.806 62.0863 135.641 62.4813 135.806 62.8762C135.97 63.1922 136.299 63.2712 136.957 63.1922Z" fill="white"/>
<path d="M38.3317 82.4658C39.401 84.2826 41.2106 84.9935 43.5138 85.0725C44.1719 84.9145 45.0767 84.7565 45.9815 84.5985C46.5573 84.5195 47.2154 84.2826 47.1331 83.5717C46.9686 82.5448 46.146 83.0977 45.5702 83.1767C45.159 83.1767 44.7477 83.4137 44.3364 83.4137C42.4445 83.6507 40.7171 83.4137 39.6478 81.5179C39.401 81.044 39.1542 80.649 38.5784 80.965C37.9204 81.3599 38.0026 81.9919 38.3317 82.4658Z" fill="white"/>
<path d="M14.1481 68.4055C13.4078 68.3265 12.832 68.1686 12.9965 67.2997C13.0788 66.8257 13.0788 66.2728 12.4207 66.2728C11.8449 66.2728 11.5982 66.6677 11.3514 67.1417C10.7756 68.5635 12.0094 69.9063 14.0659 70.0643C14.6416 69.9853 15.711 70.0643 15.6287 69.1164C15.711 68.0896 14.7239 68.4055 14.1481 68.4055Z" fill="white"/>
<path d="M25.5818 53.7133C25.9931 53.6343 26.3221 53.3974 26.3221 52.9234C26.2399 52.4495 25.9931 52.2125 25.4996 52.2125C25.006 52.2125 24.677 52.4495 24.677 52.9234C24.677 53.4764 25.0883 53.7923 25.5818 53.7133Z" fill="white"/>
<path d="M174.713 64.456C175.207 64.456 175.536 64.0611 175.536 63.7451C175.453 63.1132 174.878 62.9552 174.302 62.8762C173.808 62.9552 173.397 63.1922 173.479 63.5871C173.562 64.2191 174.055 64.456 174.713 64.456Z" fill="white"/>
<path d="M49.2718 69.3534C50.0121 69.3534 50.2589 68.9585 50.4234 68.4055C50.5879 68.0106 50.3411 67.6156 49.8476 67.5367C49.1895 67.4577 48.7782 67.9316 48.6137 68.4845C48.5315 68.9585 48.7782 69.2744 49.2718 69.3534Z" fill="white"/>
<path d="M140.494 68.8005C139.919 68.8005 139.507 69.0374 139.507 69.5904C139.507 70.0643 139.919 70.3013 140.33 70.3013C140.906 70.3013 141.317 70.1433 141.317 69.5114C141.235 69.0374 140.988 68.8005 140.494 68.8005Z" fill="white"/>
<path d="M168.051 60.2695C168.462 60.3485 168.873 60.1116 168.873 59.6376C168.791 58.9267 168.215 58.7687 167.722 58.6897C167.228 58.6897 166.899 58.9267 166.899 59.4006C166.817 60.1115 167.475 60.1905 168.051 60.2695Z" fill="white"/>
<path d="M37.2623 70.4593C37.7559 70.3803 38.0849 69.9853 38.0849 69.5114C38.0026 68.9585 37.6736 68.7215 37.2623 68.8005C36.6865 68.8795 36.3575 69.2744 36.4398 69.8274C36.4398 70.2223 36.7688 70.5383 37.2623 70.4593Z" fill="white"/>
<path d="M93.9374 76.0676C94.4309 75.9886 94.8422 75.6726 94.7599 75.1197C94.6777 74.7248 94.3486 74.4878 93.8551 74.4878C93.2793 74.5668 92.9503 74.8827 93.0325 75.4357C93.1148 75.9096 93.5261 76.1466 93.9374 76.0676Z" fill="white"/>
<path d="M150.612 68.8005C151.023 68.7215 151.352 68.4845 151.27 68.0106C151.188 67.6156 150.941 67.3787 150.448 67.3787C150.036 67.4577 149.707 67.7736 149.79 68.1686C149.79 68.5635 150.119 68.8005 150.612 68.8005Z" fill="white"/>
<path d="M72.3038 65.009C72.6328 64.93 72.8796 64.772 72.8796 64.377C72.8796 63.9031 72.5506 63.7451 72.057 63.5871C71.6458 63.7451 71.2345 63.9031 71.3167 64.377C71.4813 64.93 71.8103 65.0879 72.3038 65.009Z" fill="white"/>
<path d="M42.2801 53.7133C42.7736 53.7133 43.1849 53.3184 43.0204 52.7655C42.9381 52.2915 42.5268 52.2125 42.1156 52.2125C41.7043 52.2915 41.3752 52.5285 41.3752 52.8445C41.5398 53.4764 41.8688 53.7923 42.2801 53.7133Z" fill="white"/>
<path d="M113.514 69.5114C114.008 69.5904 114.255 69.2744 114.337 68.8795C114.255 68.5635 114.09 68.2475 113.761 68.2475C113.268 68.1685 112.939 68.4845 112.939 68.8795C112.856 69.1954 113.103 69.5114 113.514 69.5114Z" fill="white"/>
<path d="M155.712 58.1368C156.205 58.1368 156.37 57.8208 156.37 57.3469C156.288 57.0309 156.041 56.794 155.712 56.794C155.3 56.794 154.971 57.1099 155.054 57.5839C155.136 57.8998 155.383 58.1368 155.712 58.1368Z" fill="white"/>
</g>
<defs>
<clipPath id="clip0_65_42">
<rect width="191" height="97" fill="white"/>
</clipPath>
</defs>
</svg>
