<svg width="66" height="65" viewBox="0 0 66 65" fill="none" xmlns="http://www.w3.org/2000/svg">
<path d="M36.0878 30.2669H33.1992V32.4463H29.9639V30.2669H22.3437L10.9263 39.3103V51.2367V61.5816C10.9263 62.943 12.0463 64.0461 13.4286 64.0461H54.9618C56.3441 64.0461 57.4642 62.943 57.4642 61.5816V30.2669H36.0878Z" fill="#FF6A3B"/>
<path d="M30.0641 30.2669H22.3437L10.9263 39.3103V51.2367C11.3399 51.3624 11.7731 51.4287 12.2109 51.4287H12.211C13.3528 51.4287 14.4334 50.9981 15.2608 50.2097L30.0641 36.0348V30.2669Z" fill="#FF6A3B"/>
<path d="M16.5066 61.5816V51.2367V39.3103L27.924 30.2669H22.3437L10.9263 39.3103V51.2367V61.5816C10.9263 62.943 12.0463 64.0461 13.4286 64.0461H19.0089C17.6266 64.0461 16.5066 62.943 16.5066 61.5816Z" fill="#FF6A3B"/>
<path d="M49.5877 11.3315L44.4384 6.11512C43.7743 5.44208 42.6801 5.42681 41.9967 6.08204L21.731 25.4872L22.1698 25.9194L20.8171 27.2516L20.3593 26.8007L6.73806 39.8434C6.05466 40.4973 6.03916 41.5737 6.70447 42.248L11.8538 47.4631C12.045 47.6578 12.3615 47.6616 12.5592 47.4733L18.1219 42.1462L29.9317 30.8379H29.456V30.7757V29.9468V29.9317H30.5467V29.9468H30.5527V30.2434L44.0146 17.3532L49.5774 12.0262C49.775 11.8366 49.7802 11.5261 49.5877 11.3315Z" fill="#FF6A3B"/>
<path d="M21.0171 21.2098H27.1037V25.6562H21.0171V21.2098Z" fill="#FF6A3B"/>
<path d="M18.9315 16.8801L15.8243 19.6001L14.3922 18.1749V19.0477H11.5749V18.4909L3.41992 24.8032L9.42952 30.8906C11.2168 32.7011 14.156 32.7418 15.9944 30.9816L21.7363 25.4834L24.7016 22.563L18.9315 16.8801Z" fill="#FF6A3B"/>
<path d="M12.5027 27.989L6.78573 22.198L3.41992 24.8032L9.42952 30.8906C11.2168 32.7011 14.156 32.7418 15.9944 30.9816L18.673 28.4165C16.8302 29.8253 14.1671 29.6751 12.5027 27.989Z" fill="#FF6A3B"/>
<path d="M29.9639 30.2668H38.4267V64.0458H29.9639V30.2668Z" fill="white"/>
<path d="M29.9639 36.1309L36.0877 30.2669H29.9639V36.1309Z" fill="white"/>
<path d="M14.09 41.2985L10.9242 38.0922C10.3883 37.5491 10.2949 36.7452 10.6357 36.1113L6.73806 39.8434C6.05466 40.4973 6.03916 41.5737 6.70447 42.248L11.8538 47.4631C12.045 47.6578 12.3615 47.6616 12.5592 47.4733L16.4725 43.7259L14.09 41.2985Z" fill="#FF6A3B"/>
<path d="M32.7758 8.53806L26.7661 2.45068L18.982 9.64901V12.1348L21.5796 14.8653L17.8523 17.8582L23.7389 23.6556L26.9414 20.5016L32.6835 15.0034C34.5218 13.2431 34.5631 10.3485 32.7758 8.53806Z" fill="#FF6A3B"/>
<path d="M14.218 17.9754L15.6689 19.4497L9.93031 24.945C8.092 26.7058 5.15302 26.6651 3.36509 24.8546C2.48792 23.9666 2.05127 22.8164 2.05127 21.6676C2.05127 20.4754 2.52021 19.2858 3.45681 18.3889L4.03686 17.8342C6.88799 15.1038 11.447 15.1674 14.218 17.9754Z" fill="#FF6A3B"/>
<path d="M26.8795 2.33899C28.6661 4.14945 28.6248 7.0439 26.7864 8.80474L21.0441 14.3023L19.5908 12.8302C16.8198 10.0223 16.8831 5.5337 19.7342 2.80337L20.3142 2.24866C21.216 1.38477 22.3838 0.954742 23.5503 0.954742C24.7608 0.954742 25.9687 1.41658 26.8795 2.33899Z" fill="#FF6A3B"/>
<path d="M20.3604 26.8009L28.3725 19.1302L35.0721 25.9176L27.06 33.5883L20.3604 26.8009Z" fill="white"/>
<path d="M59.7953 9.46684C59.0499 8.99355 58.4613 8.42649 58.0294 7.76567C57.7722 7.37202 57.1838 7.36693 56.9211 7.75714C56.4734 8.42204 55.8771 8.99686 55.1279 9.47931C54.7188 9.7428 54.7283 10.3291 55.1406 10.5877C55.8384 11.0255 56.409 11.6105 56.8744 12.3176C57.1433 12.7266 57.7517 12.6954 58.0059 12.2774C58.4375 11.5679 59.0335 11.0147 59.7658 10.5915C60.1992 10.3412 60.2176 9.73504 59.7953 9.46684Z" fill="white"/>
<path d="M63.2337 19.4604L58.3186 19.0007C57.7885 18.9511 57.5435 18.3269 57.9017 17.939L61.2315 14.3343C61.4764 14.0692 61.8978 14.0532 62.1582 14.3037C63.4452 15.5416 64.0259 17.0661 63.9409 18.8606C63.9237 19.222 63.5994 19.4946 63.2337 19.4604Z" fill="white"/>
<path d="M61.1241 28.264L57.7632 24.7947C57.4007 24.4205 57.6275 23.7995 58.1489 23.7384L62.9941 23.1707C63.3504 23.129 63.6751 23.3853 63.7048 23.7374C63.8518 25.4785 63.2847 26.9838 62.0444 28.2669C61.7945 28.5252 61.374 28.522 61.1241 28.264Z" fill="white"/>
<path d="M25.1626 22.2016L23.5736 23.7232C22.4734 24.7766 20.7144 24.7523 19.6448 23.6687L16.1782 20.1573C15.1085 19.0739 15.1332 17.3415 16.2335 16.2881L17.8225 14.7665C18.9226 13.7131 20.6816 13.7374 21.7513 14.821L25.2178 18.3324C26.2875 19.4158 26.2627 21.1482 25.1626 22.2016Z" fill="#FF6A3B"/>
<path d="M22.1684 21.1832L18.7018 17.6718C17.8196 16.7781 17.6838 15.4439 18.2799 14.4124C18.1184 14.5127 17.9645 14.6301 17.8222 14.7665L16.2332 16.288C15.1331 17.3415 15.1083 19.0738 16.1779 20.1573L19.6445 23.6687C20.7141 24.7522 22.4731 24.7766 23.5733 23.7232L25.1623 22.2016C25.355 22.017 25.5127 21.8108 25.6393 21.5917C24.5529 22.2663 23.0996 22.1266 22.1684 21.1832Z" fill="#FF6A3B"/>
<path d="M57.4639 29.3125H36.0881C35.5528 29.3125 35.1192 29.7398 35.1192 30.2667C35.1192 30.7937 35.5528 31.221 36.0881 31.221H37.4578V55.1314C37.4578 55.6584 37.8915 56.0856 38.4267 56.0856C38.9619 56.0856 39.3956 55.6584 39.3956 55.1314V31.221H56.495V61.5818C56.495 62.4142 55.8074 63.0916 54.9621 63.0916H39.3955V59.1979C39.3955 58.6709 38.9618 58.2437 38.4266 58.2437C37.8914 58.2437 37.4577 58.6709 37.4577 59.1979V63.0916H30.9328V36.1308C30.9328 35.6039 30.499 35.1766 29.9639 35.1766C29.4288 35.1766 28.995 35.6039 28.995 36.1308V63.0916H13.4286C12.5833 63.0916 11.8956 62.4143 11.8956 61.5818V51.2367C11.8956 50.7097 11.4617 50.2825 10.9267 50.2825C10.3916 50.2825 9.95776 50.7097 9.95776 51.2367V61.5818C9.95776 63.4665 11.5148 65 13.4286 65H54.962C56.8757 65 58.4327 63.4666 58.4327 61.5818V30.2667C58.4328 29.7398 57.999 29.3125 57.4639 29.3125Z" fill="black"/>
<path d="M12.2116 48.5654C12.5805 48.5654 12.95 48.4297 13.2348 48.157L20.1662 41.5199C20.5499 41.1524 20.5585 40.5484 20.1854 40.1706C19.8125 39.7926 19.199 39.7844 18.8154 40.1517L12.2207 46.4664L7.39913 41.5823C7.25806 41.4395 7.18197 41.251 7.18481 41.0518C7.18765 40.8526 7.26917 40.6662 7.41424 40.5272L16.6142 31.7179C16.6145 31.7177 16.6149 31.7174 16.6151 31.7171L19.1783 29.2626L20.3426 28.1477L25.6924 33.5666L21.7762 37.3165C21.3925 37.6839 21.3839 38.288 21.757 38.6658C22.1303 39.0439 22.7434 39.0522 23.127 38.6847L30.0808 32.0262L35.7499 26.5979C35.75 26.5978 35.7502 26.5975 35.7504 26.5974L50.253 12.7106C50.8332 12.155 50.8465 11.2378 50.2822 10.666L45.1333 5.45035C44.6314 4.94195 43.9585 4.65657 43.2386 4.64652C42.5209 4.63825 41.838 4.90327 41.3218 5.39755L35.1583 11.2993C35.0849 10.0163 34.5623 8.75282 33.5834 7.76133L27.5737 1.67396C26.5288 0.615543 25.1281 0.0212586 23.6293 0.00052036C22.1324 -0.0188184 20.7134 0.535007 19.6387 1.56403L19.059 2.11913C15.9244 5.1207 15.7642 10.0165 18.6286 13.21C18.0788 13.3806 17.5723 13.6752 17.1468 14.0824L15.5579 15.6039C15.125 16.0185 14.8167 16.5121 14.6317 17.0391C11.4709 14.1285 6.49663 14.1482 3.36168 17.15L2.78203 17.7051C1.70733 18.7341 1.1039 20.1137 1.08284 21.5898C1.06179 23.0658 1.62555 24.4616 2.67041 25.5199L8.68013 31.6073C9.65897 32.5987 10.9264 33.1491 12.2265 33.2575L6.06335 39.159C4.99769 40.1794 4.97366 41.8633 6.00973 42.9126L11.1587 48.1283C11.4461 48.4192 11.8286 48.5654 12.2116 48.5654ZM27.0817 32.2363L21.732 26.8174L25.0433 23.6467L25.8378 22.886C25.8381 22.8857 25.8383 22.8855 25.8387 22.8851L28.3546 20.476L33.7043 25.8949L29.9812 29.46L27.0817 32.2363ZM42.6725 6.76602C42.8176 6.62709 43.0109 6.55291 43.2112 6.55495C43.4135 6.55775 43.6027 6.6379 43.7439 6.78091L48.5655 11.6648L35.0937 24.5645L29.744 19.1456L42.6725 6.76602ZM20.4098 3.48747L20.9895 2.93237C21.693 2.2587 22.6234 1.89546 23.602 1.90882C24.5832 1.92243 25.5003 2.3115 26.1843 3.00438C27.5464 4.38418 27.575 6.57009 26.2493 7.9808C25.8859 8.3677 25.9096 8.9714 26.3024 9.32929C26.6954 9.68719 27.3082 9.66365 27.6716 9.277C28.5503 8.34175 29.0393 7.18371 29.142 6.00011L32.1941 9.09176C33.6059 10.5218 33.5735 12.8161 32.1221 14.2069L26.8406 19.2641C26.676 18.6691 26.361 18.1214 25.9125 17.6672L25.4477 17.1963L27.4941 15.2369C27.8778 14.8695 27.8864 14.2654 27.5134 13.8876C27.1404 13.5096 26.5269 13.5014 26.1433 13.8687L24.0969 15.8282L22.515 14.2259L24.6799 12.153C25.0636 11.7856 25.0723 11.1815 24.6992 10.8037C24.3261 10.4259 23.7127 10.4174 23.3292 10.7848L21.064 12.9537L20.2861 12.1656C19.1258 10.9903 18.4997 9.44049 18.5231 7.80141C18.5464 6.16232 19.2165 4.63011 20.4098 3.48747ZM16.9088 16.9722L18.4976 15.4506C18.8487 15.1144 19.304 14.9471 19.7587 14.9471C20.2306 14.9471 20.7022 15.1272 21.0563 15.486L24.5228 18.9975C25.2182 19.7018 25.2022 20.8319 24.4873 21.517L23.7075 22.2636L22.8978 23.0389C22.5513 23.3707 22.098 23.5514 21.611 23.5431C21.1277 23.5364 20.6761 23.3448 20.3392 23.0036L19.1993 21.849C19.1992 21.8488 19.1991 21.8487 19.199 21.8486C19.1988 21.8484 19.1987 21.8483 19.1986 21.8482L16.8726 19.4922C16.1773 18.7877 16.1934 17.6572 16.9088 16.9722ZM4.13279 19.0733L4.71245 18.5182C5.9215 17.3606 7.48904 16.7844 9.05529 16.7844C10.6804 16.7844 12.3041 17.4049 13.5237 18.6403L14.3017 19.4283L9.25436 24.2613C8.55082 24.935 7.62339 25.2994 6.64184 25.2849C5.66067 25.2713 4.74358 24.8822 4.05954 24.1893C3.37551 23.4964 3.00642 22.5827 3.02024 21.6164C3.03407 20.6501 3.42925 19.747 4.13279 19.0733ZM10.0694 30.2768L7.01609 27.184C8.36505 27.1095 9.62719 26.5663 10.6053 25.6297L15.5524 20.8925L17.1343 22.4948L15.0879 24.4542C14.7042 24.8216 14.6955 25.4257 15.0686 25.8035C15.2585 25.996 15.5108 26.0925 15.7634 26.0925C16.0068 26.0925 16.2504 26.0027 16.4388 25.8224L18.4852 23.8629L18.95 24.3337C19.3986 24.7881 19.9455 25.1135 20.5447 25.2923L15.2627 30.35C13.8101 31.7393 11.4809 31.7066 10.0694 30.2768Z" fill="black"/>
<path d="M49.5276 19.4633C49.5276 18.9363 49.094 18.5091 48.5587 18.5091C48.0235 18.5091 47.5898 18.9363 47.5898 19.4633V20.4455C47.5898 20.9725 48.0235 21.3997 48.5587 21.3997C49.094 21.3997 49.5276 20.9725 49.5276 20.4455V19.4633Z" fill="black"/>
<path d="M50.2251 23.0731C50.2251 23.6001 50.6588 24.0274 51.194 24.0274H52.1913C52.7265 24.0274 53.1602 23.6001 53.1602 23.0731C53.1602 22.5462 52.7265 22.1189 52.1913 22.1189H51.194C50.6589 22.1189 50.2251 22.546 50.2251 23.0731Z" fill="black"/>
<path d="M48.526 24.714C47.9908 24.714 47.5571 25.1413 47.5571 25.6682V26.6504C47.5571 27.1774 47.9908 27.6047 48.526 27.6047C49.0612 27.6047 49.4949 27.1774 49.4949 26.6504V25.6682C49.4949 25.1413 49.0612 24.714 48.526 24.714Z" fill="black"/>
<path d="M44.8932 22.0865C44.358 22.0865 43.9243 22.5137 43.9243 23.0407C43.9243 23.5677 44.358 23.9949 44.8932 23.9949H45.8907C46.4259 23.9949 46.8595 23.5677 46.8595 23.0407C46.8595 22.5137 46.4259 22.0865 45.8907 22.0865H44.8932Z" fill="black"/>
<path d="M54.62 11.3925C55.1829 11.7456 55.6543 12.218 56.0614 12.8368C56.3613 13.2928 56.8666 13.5626 57.4173 13.5626C57.427 13.5626 57.4369 13.5624 57.4469 13.5623C58.021 13.5522 58.5408 13.2553 58.8372 12.7679C59.1737 12.2146 59.6379 11.7718 60.2562 11.4147C60.7538 11.1271 61.0581 10.6177 61.0703 10.0519C61.0823 9.48934 60.802 8.97075 60.3204 8.66502C59.6955 8.26833 59.1988 7.79198 58.8442 7.24935C58.5455 6.79222 58.0366 6.51703 57.4831 6.51334C57.4793 6.51334 57.4756 6.51334 57.4717 6.51334C56.9232 6.51334 56.4161 6.78077 56.1137 7.22989C55.7392 7.786 55.229 8.27418 54.5978 8.68067C54.1309 8.98131 53.8541 9.48807 53.8575 10.0363C53.8607 10.588 54.1457 11.095 54.62 11.3925ZM57.4695 8.64238C57.8577 9.15129 58.3328 9.60944 58.8883 10.0103C58.3046 10.4039 57.813 10.8752 57.42 11.4181C57.0119 10.8741 56.5443 10.4088 56.0234 10.0284C56.5847 9.62178 57.0689 9.15765 57.4695 8.64238Z" fill="black"/>
<path d="M62.8351 13.621C62.5252 13.3229 62.1023 13.1608 61.6641 13.1717C61.2274 13.1844 60.8086 13.3741 60.5148 13.6921L57.1851 17.2967C56.7708 17.7452 56.6513 18.3752 56.8735 18.9408C57.0955 19.5063 57.6141 19.8932 58.2271 19.9506L63.1423 20.4103C63.1927 20.415 63.2431 20.4174 63.2934 20.4174C63.6809 20.4174 64.0612 20.2791 64.3558 20.0273C64.6869 19.7442 64.8885 19.335 64.9088 18.9051C65.0075 16.8175 64.3101 15.0396 62.8351 13.621ZM59.0526 18.1109L61.7169 15.2267C62.5557 16.1353 62.971 17.2044 62.9797 18.4782L59.0526 18.1109Z" fill="black"/>
<path d="M64.0872 22.5695C63.7507 22.299 63.31 22.1726 62.8793 22.2233L58.0341 22.791C57.4261 22.8622 56.9197 23.2589 56.7126 23.8264C56.5054 24.3938 56.6393 25.0172 57.0618 25.4535L60.4227 28.9227H60.4229C60.725 29.2346 61.1491 29.4132 61.5871 29.4132H61.588C62.024 29.4131 62.446 29.235 62.7459 28.9248C64.1915 27.4293 64.839 25.6574 64.6702 23.6582C64.6343 23.2353 64.4219 22.8386 64.0872 22.5695ZM61.5783 27.3508L58.9218 24.6087L62.7571 24.1593C62.7827 25.3559 62.3949 26.4057 61.5783 27.3508Z" fill="black"/>
</svg>
