<svg width="67" height="67" viewBox="0 0 67 67" fill="none" xmlns="http://www.w3.org/2000/svg">
<path d="M33.4998 3.3013L58.5997 12.6059V28.5519C58.6 34.8183 56.9533 40.9748 53.8246 46.4042C50.6958 51.8337 46.1949 56.3453 40.7729 59.4871L33.4998 63.6987L26.224 59.4845C20.8029 56.3426 16.3028 51.8312 13.1745 46.4023C10.0462 40.9734 8.3997 34.8176 8.3999 28.5519V12.6059L33.4998 3.3013Z" fill="white"/>
<path d="M14.0508 17.0264V29.1952C14.0594 34.2783 15.3995 39.2704 17.9376 43.6744C20.4757 48.0785 24.1233 51.7408 28.517 54.2967L33.4996 57.184L38.4822 54.2967C42.876 51.7408 46.5235 48.0785 49.0616 43.6744C51.5997 39.2704 52.9398 34.2783 52.9485 29.1952V17.0264L33.4996 9.81601L14.0508 17.0264Z" fill="#FF6A3B"/>
<path d="M33.5021 64.6147C33.341 64.6148 33.1826 64.5724 33.0431 64.4917L25.7699 60.2775C20.217 57.047 15.6072 52.4182 12.3996 46.8521C9.19189 41.286 7.49826 34.9767 7.4873 28.5525V27.9516C7.4873 27.7086 7.58381 27.4756 7.7556 27.3038C7.92739 27.132 8.16038 27.0355 8.40332 27.0355C8.64626 27.0355 8.87925 27.132 9.05104 27.3038C9.22283 27.4756 9.31934 27.7086 9.31934 27.9516V28.5545C9.32978 34.6579 10.9389 40.652 13.9866 45.94C17.0342 51.2279 21.4139 55.6253 26.6896 58.6941L33.5021 62.6403L40.3163 58.692C45.5916 55.6229 49.971 51.2255 53.0184 45.9376C56.0657 40.6496 57.6746 34.6556 57.685 28.5525V13.243L33.5021 4.27804L9.31934 13.243V16.75C9.31934 16.9929 9.22283 17.2259 9.05104 17.3977C8.87925 17.5695 8.64626 17.666 8.40332 17.666C8.16038 17.666 7.92739 17.5695 7.7556 17.3977C7.58381 17.2259 7.4873 16.9929 7.4873 16.75V12.6059C7.48738 12.4189 7.54469 12.2363 7.65155 12.0828C7.7584 11.9292 7.90968 11.812 8.08507 11.747L33.1839 2.44235C33.3892 2.36594 33.6151 2.36594 33.8204 2.44235L58.9208 11.747C59.0961 11.8121 59.2473 11.9292 59.3541 12.0828C59.4609 12.2364 59.5181 12.4189 59.518 12.6059V28.5525C59.5069 34.9768 57.8131 41.2862 54.6051 46.8524C51.3971 52.4185 46.787 57.0472 41.2338 60.2775L33.9612 64.4917C33.8217 64.5724 33.6633 64.6148 33.5021 64.6147Z" fill="black"/>
<path d="M8.39941 24.5539C8.15647 24.5539 7.92348 24.4574 7.75169 24.2856C7.57991 24.1138 7.4834 23.8809 7.4834 23.6379V21.2824C7.4834 21.0395 7.57991 20.8065 7.75169 20.6347C7.92348 20.4629 8.15647 20.3664 8.39941 20.3664C8.64236 20.3664 8.87535 20.4629 9.04713 20.6347C9.21892 20.8065 9.31543 21.0395 9.31543 21.2824V23.6379C9.3155 23.7582 9.29185 23.8774 9.24584 23.9885C9.19983 24.0997 9.13236 24.2007 9.04729 24.2858C8.96221 24.3709 8.86121 24.4383 8.75004 24.4843C8.63887 24.5303 8.51973 24.554 8.39941 24.5539Z" fill="black"/>
<path d="M33.4996 58.1016C33.3384 58.1015 33.1801 58.0589 33.0406 57.978L28.0575 55.0902C23.5248 52.4536 19.762 48.6756 17.1438 44.1323C14.5255 39.5889 13.1433 34.439 13.1348 29.1952V17.0258C13.1348 16.8389 13.192 16.6564 13.2988 16.503C13.4055 16.3495 13.5567 16.2324 13.732 16.1674L33.1814 8.95706C33.3867 8.88065 33.6126 8.88065 33.8179 8.95706L53.2673 16.1674C53.4426 16.2324 53.5937 16.3495 53.7005 16.503C53.8073 16.6564 53.8645 16.8389 53.8645 17.0258V29.1952C53.8558 34.4386 52.4736 39.5882 49.8557 44.1313C47.2378 48.6743 43.4755 52.4524 38.9434 55.0892L33.9608 57.9765C33.8209 58.0582 33.6617 58.1014 33.4996 58.1016ZM14.9668 17.6634V29.1952C14.9751 34.1177 16.2729 38.9522 18.7308 43.2171C21.1888 47.482 24.7211 51.0286 28.9761 53.5037L33.4996 56.1256L38.0237 53.5042C42.2784 51.0286 45.8104 47.4819 48.2682 43.2169C50.726 38.952 52.0238 34.1177 52.0325 29.1952V17.6634L33.4996 10.7928L14.9668 17.6634Z" fill="black"/>
<path d="M38.3436 25.1966L31.1585 32.3817L28.6564 29.8797L24.0513 34.4849L31.1585 41.5921L42.9487 29.8018L38.3436 25.1966ZM27.1214 34.485L28.6565 32.95L31.1586 35.452L38.3436 28.2669L39.8787 29.802L31.1586 38.5221L27.1214 34.485Z" fill="black"/>
</svg>
