<svg width="55" height="54" viewBox="0 0 55 54" fill="none" xmlns="http://www.w3.org/2000/svg">
<path d="M50.9727 45.9844C50.9727 48.3142 49.0487 50.2031 46.6758 50.2031H5.1036C2.73066 50.2031 0.806738 48.3142 0.806738 45.9844H0.805664V12.2334C0.805664 14.5632 2.72959 16.4521 5.1036 16.4521H46.6758C49.0487 16.4521 50.9727 18.3411 50.9727 20.6709V45.9844Z" fill="#FF6A3B"/>
<path d="M46.6756 16.4521H43.4526C45.8256 16.4521 47.7495 18.3411 47.7495 20.6709V45.9844C47.7495 48.3142 45.8256 50.2031 43.4526 50.2031H46.6756C49.0486 50.2031 50.9725 48.3142 50.9725 45.9844V20.6709C50.9725 18.3411 49.0486 16.4521 46.6756 16.4521Z" fill="#FF6A3B"/>
<path d="M52.5829 23.8349C53.4724 23.8349 54.1942 24.5437 54.1942 25.417C54.1942 26.2901 53.4724 26.9979 52.5829 26.9979V26.999H50.9727V26.9979V23.8349H52.5829Z" fill="#FF6A3B"/>
<path d="M54.1943 25.417V38.0732C54.1943 38.9464 53.4724 39.6552 52.583 39.6552H50.9727H41.3026L37.0068 33.3271L41.3026 26.999H50.9727H52.583V26.9979C53.4724 26.9979 54.1943 26.2901 54.1943 25.417Z" fill="#FF6A3B"/>
<path d="M52.5828 26.9979V26.999H50.9726H50.9712V38.0732C50.9712 38.9464 50.2493 39.6552 49.3599 39.6552H50.9726H52.5828C53.4723 39.6552 54.1942 38.9464 54.1942 38.0732V25.417C54.1942 26.2901 53.4723 26.9979 52.5828 26.9979Z" fill="#FF6A3B"/>
<path d="M52.5831 23.044H51.7779V20.6706V12.2331C51.7779 9.47066 49.4888 7.22323 46.6754 7.22323H24.5488L9.62111 3.0357C9.61682 3.03454 9.61241 3.03391 9.60812 3.03275C9.60371 3.03159 9.59952 3.0299 9.59512 3.02885C9.58609 3.02663 9.57718 3.02558 9.56826 3.02368C9.55441 3.02083 9.54055 3.01788 9.52669 3.01566C9.51412 3.01366 9.50177 3.0124 9.4892 3.01092C9.47459 3.00923 9.46009 3.00775 9.44559 3.00691C9.43377 3.00628 9.42206 3.00617 9.41025 3.00596C9.39521 3.00575 9.38028 3.00565 9.36534 3.00628C9.35428 3.0067 9.34321 3.00775 9.33226 3.0086C9.3169 3.00986 9.30153 3.01124 9.28639 3.01345C9.27608 3.01493 9.26587 3.01682 9.25567 3.01862C9.23998 3.02136 9.22451 3.02431 9.20915 3.028C9.19959 3.03032 9.19025 3.03296 9.18079 3.0356C9.16511 3.04003 9.14964 3.04456 9.13417 3.04984C9.12547 3.0529 9.11688 3.05616 9.10818 3.05954C9.0926 3.06545 9.07713 3.07167 9.06199 3.07852C9.05393 3.08222 9.04609 3.08622 9.03814 3.09013C9.02299 3.09761 9.00806 3.10521 8.99345 3.11375C8.98582 3.11807 8.97852 3.12272 8.971 3.12736C8.9566 3.13622 8.94242 3.14529 8.92867 3.15509C8.92148 3.16016 8.91449 3.16564 8.9074 3.17102C8.89419 3.18104 8.88109 3.19127 8.86852 3.20213C8.86143 3.20825 8.85466 3.21468 8.84779 3.22101C8.83597 3.23198 8.82426 3.24295 8.81309 3.25455C8.80611 3.26183 8.79955 3.26942 8.79279 3.27702C8.78258 3.28851 8.77248 3.30011 8.76292 3.31224C8.75605 3.321 8.7496 3.32996 8.74305 3.33893C8.73456 3.35063 8.72618 3.36245 8.71845 3.37457C8.71179 3.38491 8.70567 3.39567 8.69954 3.40632C8.69278 3.41803 8.68601 3.42984 8.67989 3.44197C8.67387 3.45378 8.6685 3.46591 8.66302 3.47804C8.65765 3.48996 8.65239 3.50187 8.64766 3.51411C8.64272 3.52698 8.63842 3.54016 8.63402 3.55345C8.63122 3.56199 8.62779 3.57001 8.62521 3.57866C8.62392 3.58298 8.62338 3.5872 8.6222 3.59142C8.62102 3.59574 8.6193 3.59986 8.61823 3.60418L7.69698 7.22302H5.10307C2.29517 7.22302 0.0100976 9.46138 0.000859373 12.2162C0.000751952 12.2219 0 12.2273 0 12.2329V39.6547C0 40.0913 0.362011 40.4457 0.805663 40.4457C1.25039 40.4457 1.61133 40.0913 1.61133 39.6547V15.8814C2.52484 16.7247 3.7531 17.243 5.10307 17.243H46.6754C46.6763 17.243 46.6772 17.2428 46.6782 17.2428C48.6019 17.2443 50.1666 18.7814 50.1666 20.6707V26.2082H41.303C41.3025 26.2082 41.302 26.2083 41.3015 26.2083C41.2782 26.2083 41.255 26.2097 41.2319 26.2117C41.2062 26.2139 41.1809 26.2175 41.1559 26.222C41.1522 26.2226 41.1485 26.223 41.1448 26.2237C41.1237 26.2278 41.1031 26.2333 41.0826 26.239C41.078 26.2403 41.0734 26.2411 41.069 26.2425C41.0508 26.248 41.033 26.2545 41.0153 26.2611C41.0085 26.2637 41.0017 26.2658 40.9949 26.2685C40.9801 26.2745 40.9658 26.2816 40.9515 26.2885C40.9421 26.2929 40.9325 26.297 40.9233 26.3018C40.9121 26.3076 40.9016 26.3142 40.8908 26.3205C40.8789 26.3275 40.8668 26.3342 40.8551 26.3418C40.8473 26.3469 40.8401 26.3527 40.8326 26.3581C40.8188 26.3678 40.805 26.3774 40.7919 26.388C40.7862 26.3927 40.7809 26.3978 40.7754 26.4026C40.7614 26.4146 40.7473 26.4265 40.734 26.4396C40.7261 26.4473 40.719 26.4557 40.7116 26.4637C40.7012 26.4748 40.6905 26.4857 40.6806 26.4975C40.6639 26.5174 40.6484 26.5381 40.6338 26.5595C40.6334 26.5598 40.6331 26.5603 40.6329 26.5607L36.3362 32.8889C36.3063 32.933 36.2809 32.9797 36.2608 33.0283C36.2532 33.0465 36.2471 33.0649 36.241 33.0833C36.2391 33.0889 36.2368 33.0942 36.2351 33.0998C36.229 33.1193 36.2244 33.1391 36.22 33.1587C36.2188 33.1639 36.2173 33.1689 36.2163 33.1741C36.2127 33.1918 36.2103 33.2096 36.2081 33.2274C36.2071 33.235 36.2056 33.2426 36.2049 33.2503C36.2034 33.265 36.203 33.2795 36.2025 33.2942C36.202 33.3054 36.201 33.3166 36.201 33.3279C36.201 33.3387 36.202 33.3496 36.2024 33.3604C36.2029 33.3754 36.2034 33.3905 36.2049 33.4055C36.2056 33.4128 36.207 33.42 36.208 33.4273C36.2103 33.4455 36.2127 33.4636 36.2164 33.4816C36.2173 33.4866 36.2188 33.4914 36.22 33.4964C36.2244 33.5162 36.2291 33.536 36.2352 33.5558C36.2369 33.5614 36.2392 33.5667 36.2411 33.5724C36.2472 33.5908 36.2533 33.6092 36.2609 33.6274C36.2811 33.6759 36.3065 33.7227 36.3366 33.7669L40.6331 40.0942C40.6333 40.0945 40.6335 40.0947 40.6338 40.095C40.651 40.1202 40.67 40.1443 40.6899 40.1674C40.6965 40.175 40.7035 40.182 40.7102 40.1892C40.7239 40.2039 40.7381 40.218 40.7528 40.2316C40.7615 40.2396 40.7701 40.2474 40.7789 40.2549C40.7946 40.2681 40.8108 40.2804 40.8274 40.2925C40.8349 40.2978 40.8421 40.3038 40.8498 40.3088C40.8739 40.325 40.899 40.3398 40.9249 40.3533C40.9314 40.3567 40.9382 40.3595 40.9447 40.3627C40.9654 40.3728 40.9864 40.3822 41.008 40.3906C41.0164 40.3938 41.0248 40.3968 41.0333 40.3997C41.0538 40.4069 41.0746 40.4132 41.0959 40.4188C41.1046 40.421 41.1132 40.4234 41.122 40.4255C41.1438 40.4304 41.1659 40.4342 41.1884 40.4374C41.1965 40.4385 41.2046 40.4401 41.2128 40.4411C41.2405 40.4441 41.2686 40.4458 41.2972 40.446C41.2994 40.446 41.3017 40.4465 41.3041 40.4465C41.3045 40.4465 41.305 40.4463 41.3056 40.4463H50.1669V45.9843C50.1669 47.8745 48.6007 49.4122 46.6757 49.4122H5.1035C3.1785 49.4122 1.61229 47.8745 1.61229 45.9843C1.61229 45.9802 1.61175 45.9762 1.61165 45.9721V42.8192C1.61165 42.3836 1.25071 42.0282 0.805985 42.0282C0.362333 42.0282 0.000322265 42.3836 0.000322265 42.8192V45.9843C0.000322265 45.9925 0.00128906 46.0005 0.00161133 46.0087C0.015039 48.7599 2.29829 50.9943 5.1035 50.9943H46.6757C49.4889 50.9943 51.7778 48.7472 51.7782 45.9851C51.7782 45.985 51.7782 45.9849 51.7782 45.9847V40.4463H52.5834C53.9159 40.4463 55 39.382 55 38.0737V25.4167C54.9997 24.1084 53.9156 23.044 52.5831 23.044ZM53.3884 38.0733C53.3884 38.5092 53.0271 38.8639 52.5831 38.8639H41.7342L37.9745 33.3274L41.7342 27.7901H52.5831C52.5944 27.7901 52.6054 27.7889 52.6165 27.7884C52.8868 27.7847 53.1463 27.7375 53.3884 27.6533V38.0733ZM9.97947 4.78152L24.1956 8.76961C24.1962 8.76982 24.1969 8.76992 24.1976 8.77013L33.7255 11.4429H8.28372L9.97947 4.78152ZM46.6754 15.6607C46.674 15.6607 46.6727 15.6609 46.6712 15.6609H5.10307C3.17796 15.6609 1.61175 14.1232 1.61175 12.2331C1.61175 10.343 3.17796 8.80526 5.10307 8.80526H7.29425L6.62287 11.4429H5.10328C4.65834 11.4429 4.29762 11.7971 4.29762 12.2339C4.29762 12.6708 4.65834 13.0249 5.10328 13.0249H7.24914C7.25021 13.0249 7.25139 13.0252 7.25257 13.0252C7.25343 13.0252 7.25429 13.0249 7.25505 13.0249H39.4752C39.4763 13.0249 39.4772 13.0252 39.4782 13.0252C39.4791 13.0252 39.4799 13.0249 39.4808 13.0249H45.6002C46.0451 13.0249 46.4058 12.6708 46.4058 12.2339C46.4058 11.7971 46.0451 11.4429 45.6002 11.4429H39.5907L30.1882 8.80526H46.6753C48.6003 8.80526 50.1665 10.343 50.1665 12.2331V17.022C49.2531 16.1789 48.025 15.6607 46.6754 15.6607ZM51.7779 24.6261H52.5831C53.0271 24.6261 53.3884 24.9808 53.3884 25.4167C53.3884 25.8526 53.0271 26.2072 52.5831 26.2072C52.5775 26.2072 52.5721 26.208 52.5665 26.2081H51.7779V24.6261Z" fill="black"/>
<path d="M44.5264 30.4269C42.8974 30.4269 41.5723 31.7281 41.5723 33.3274C41.5723 34.9268 42.8974 36.2278 44.5264 36.2278C46.1553 36.2278 47.4805 34.9268 47.4805 33.3274C47.4805 31.7281 46.1553 30.4269 44.5264 30.4269ZM44.5264 34.6458C43.7859 34.6458 43.1836 34.0544 43.1836 33.3274C43.1836 32.6004 43.7859 32.009 44.5264 32.009C45.2668 32.009 45.8691 32.6004 45.8691 33.3274C45.8691 34.0544 45.2668 34.6458 44.5264 34.6458Z" fill="black"/>
</svg>
