<svg width="66" height="66" viewBox="0 0 66 66" fill="none" xmlns="http://www.w3.org/2000/svg">
<g clip-path="url(#clip0_138_7)">
<path d="M33.0004 11.0009C20.8499 11.0009 11.0007 20.8501 11.0007 33.0005C11.0007 45.151 20.8499 55.0002 33.0004 55.0002C45.1508 55.0002 55 45.151 55 33.0005C55 20.8512 45.1507 11.0009 33.0004 11.0009ZM33.0004 35.2004C31.7849 35.2004 30.8005 34.216 30.8005 33.0005C30.8005 31.7851 31.7849 30.8006 33.0004 30.8006C34.2158 30.8006 35.2003 31.7851 35.2003 33.0005C35.2003 34.216 34.2158 35.2004 33.0004 35.2004Z" fill="#FF6A3B"/>
<path d="M32.9992 35.1993C34.2142 35.1993 35.1991 34.2143 35.1991 32.9993C35.1991 31.7844 34.2142 30.7994 32.9992 30.7994C31.7842 30.7994 30.7993 31.7844 30.7993 32.9993C30.7993 34.2143 31.7842 35.1993 32.9992 35.1993Z" fill="#FF6A3B"/>
<path d="M1.08325 32.9851H1.1218C1.71464 32.9851 2.20203 32.5153 2.22175 31.9225C2.81679 14.9234 17.0803 1.62462 34.0806 2.21978C40.6188 2.44858 46.9151 4.75407 52.0564 8.80096H46.2023C45.5951 8.80096 45.1023 9.29376 45.1023 9.90091C45.1023 10.5081 45.5951 11.0009 46.2023 11.0009H55.0022H55.0175C55.1034 10.9943 55.188 10.9766 55.2705 10.9502C55.3266 10.9425 55.3827 10.9304 55.4367 10.9139C55.4675 10.9007 55.4906 10.8731 55.5204 10.8566C55.6194 10.8083 55.7096 10.7445 55.7888 10.6685L55.7997 10.6608C55.8272 10.6223 55.8526 10.5827 55.8756 10.5409C55.9329 10.4705 55.9812 10.3936 56.0198 10.3111C56.0506 10.223 56.0681 10.1318 56.0748 10.0394C56.0879 9.99424 56.0968 9.94809 56.1023 9.90078V1.101C56.1023 0.49385 55.6094 0.00104107 55.0023 0.00104107C54.3951 0.00104107 53.9023 0.49385 53.9023 1.101V7.47206C39.8071 -4.07433 19.0217 -2.0108 7.47417 12.0833C2.89052 17.6767 0.272563 24.6219 0.0218403 31.8489C0.00198874 32.456 0.477137 32.9642 1.08325 32.9851Z" fill="#231F20"/>
<path d="M17.3366 59.5244C16.4225 58.9832 15.5359 58.3958 14.6812 57.7644C14.2039 57.3883 13.5131 57.4696 13.1368 57.9471C12.7606 58.4244 12.842 59.1152 13.3195 59.4915C13.3371 59.5058 13.3558 59.519 13.3745 59.5322C14.2886 60.2087 15.2368 60.839 16.2157 61.4187C16.7382 61.7288 17.4136 61.5562 17.7238 61.0336C18.0317 60.511 17.859 59.8357 17.3366 59.5244Z" fill="black"/>
<path d="M9.98775 53.47C9.58402 53.0146 8.88779 52.9728 8.43237 53.3754C7.97694 53.7791 7.93518 54.4754 8.33775 54.9318C9.09456 55.7821 9.89532 56.5928 10.7346 57.3605C11.1911 57.7609 11.8863 57.7158 12.2867 57.2593C12.6761 56.816 12.6463 56.1439 12.2185 55.737C11.4364 55.021 10.6929 54.2642 9.98775 53.47Z" fill="black"/>
<path d="M7.99564 50.9874C7.37522 50.1251 6.79991 49.2319 6.27088 48.3112C5.9673 47.7844 5.29416 47.6029 4.76719 47.9065C4.24035 48.21 4.05885 48.8843 4.36242 49.4112C4.92896 50.3956 5.54604 51.3505 6.21042 52.2723C6.57561 52.7585 7.26423 52.8563 7.75033 52.4911C8.22226 52.1369 8.33119 51.4736 7.99564 50.9874Z" fill="black"/>
<path d="M23.1147 62.1797C22.1094 61.8388 21.1216 61.4472 20.1568 61.0038C19.6123 60.7343 18.9523 60.9565 18.6829 61.501C18.4134 62.0455 18.6356 62.7055 19.1801 62.9749C19.1988 62.9837 19.2175 62.9926 19.2373 63.0014C20.2725 63.4777 21.3307 63.8989 22.4097 64.2641C22.985 64.4588 23.6099 64.1498 23.8045 63.5745C23.9991 62.9992 23.69 62.3744 23.1147 62.1797Z" fill="black"/>
<path d="M4.83091 45.4732C4.40087 44.503 4.02021 43.5119 3.69241 42.5032C3.53295 41.9169 2.92786 41.5715 2.3416 41.731C1.75533 41.8905 1.40986 42.4956 1.56945 43.0818C1.57821 43.116 1.5893 43.15 1.60245 43.183C1.95333 44.2665 2.36029 45.3313 2.82126 46.373C2.99721 46.7711 3.39218 47.0274 3.82776 47.0274C4.43491 47.0274 4.92771 46.5346 4.92771 45.9275C4.92771 45.7746 4.89587 45.6227 4.8331 45.482L4.83091 45.4732Z" fill="black"/>
<path d="M2.02384 40.7289C2.61784 40.6025 2.99618 40.0194 2.87089 39.4254C2.652 38.3859 2.48584 37.3366 2.37369 36.2806C2.30989 35.6757 1.76758 35.2379 1.16365 35.3028C0.559725 35.3676 0.120928 35.9089 0.184608 36.5128C0.304491 37.6436 0.4838 38.7678 0.719182 39.881C0.845768 40.4759 1.42868 40.8554 2.02384 40.7289Z" fill="black"/>
<path d="M64.9184 33.0522C64.321 33.0214 63.8119 33.4812 63.781 34.0796C63.7799 34.0905 63.7799 34.1016 63.7799 34.1126C63.7425 35.1741 63.6501 36.2333 63.5038 37.285C63.4213 37.8855 63.8403 38.441 64.4409 38.5246C64.4916 38.5324 64.5433 38.5356 64.595 38.5356C65.1428 38.5344 65.607 38.1308 65.6828 37.5874C65.839 36.461 65.938 35.3269 65.9786 34.1895C65.9997 33.5834 65.5257 33.0742 64.9184 33.0522Z" fill="black"/>
<path d="M62.2126 45.8802C61.6659 45.6162 61.0081 45.845 60.7441 46.3917C60.2821 47.3475 59.7695 48.2792 59.2107 49.1824C58.8994 49.7038 59.071 50.3791 59.5924 50.6904C60.1017 50.994 60.7595 50.8389 61.0806 50.3406C61.679 49.3726 62.2279 48.3749 62.7229 47.3497C62.9881 46.803 62.7593 46.1452 62.2126 45.8802Z" fill="black"/>
<path d="M57.398 51.8003C56.7489 52.6418 56.0571 53.4503 55.3245 54.2203C54.9054 54.6602 54.923 55.3576 55.363 55.7767C55.803 56.1957 56.5004 56.1782 56.9195 55.7381C57.7027 54.9131 58.444 54.0486 59.1392 53.1476C59.5176 52.6725 59.4384 51.9805 58.9633 51.6022C58.4881 51.2238 57.7962 51.303 57.4178 51.7781C57.4112 51.7859 57.4047 51.7946 57.398 51.8034V51.8003Z" fill="black"/>
<path d="M29.3164 63.5799C28.2626 63.4545 27.2155 63.2741 26.1792 63.0409C25.5864 62.9068 24.9978 63.2785 24.8636 63.8715C24.7294 64.4645 25.1012 65.0529 25.6941 65.1871C26.804 65.438 27.927 65.6304 29.0568 65.7646C29.1007 65.7702 29.1448 65.7724 29.1888 65.7724C29.7959 65.7712 30.2877 65.2773 30.2865 64.6702C30.2855 64.1134 29.8686 63.6459 29.3164 63.5799Z" fill="black"/>
<path d="M53.0201 56.4114C52.2106 57.1022 51.3657 57.7511 50.4902 58.3562C49.9897 58.7027 49.8644 59.3891 50.2097 59.8907C50.555 60.3923 51.2426 60.5166 51.7442 60.1712C52.6813 59.5211 53.5845 58.8226 54.4502 58.0813C54.9122 57.6864 54.9661 56.9923 54.5712 56.5303C54.1764 56.0683 53.4822 56.0144 53.0202 56.4092V56.4114H53.0201Z" fill="black"/>
<path d="M64.2398 39.6059C63.6501 39.4596 63.0539 39.8193 62.9076 40.4089C62.6524 41.4396 62.3445 42.4571 61.9848 43.4569C61.7791 44.0288 62.075 44.6592 62.647 44.8648C63.2189 45.0705 63.8493 44.7746 64.0549 44.2026C64.441 43.1323 64.771 42.0423 65.0449 40.9378C65.1912 40.3482 64.8304 39.752 64.2408 39.6057C64.2409 39.607 64.2409 39.6059 64.2398 39.6059Z" fill="black"/>
<path d="M41.9223 62.4888C40.9059 62.7946 39.8741 63.0487 38.8314 63.2478C38.2352 63.3622 37.8448 63.9397 37.9591 64.5359C38.0581 65.0529 38.5102 65.4269 39.0371 65.4279C39.1065 65.4279 39.1769 65.4224 39.2451 65.4092C40.3627 65.1959 41.4692 64.923 42.5582 64.5941C43.1357 64.4039 43.4492 63.7824 43.2589 63.2049C43.0751 62.6493 42.4878 62.3336 41.9223 62.4888Z" fill="black"/>
<path d="M35.6789 63.69C34.7988 63.7647 33.898 63.7999 33.0005 63.7999H32.4977C31.8982 63.8087 31.4077 64.2806 31.3769 64.8802C31.3659 65.4873 31.8488 65.9889 32.4571 66H33.0005C33.9619 66 34.9254 65.957 35.8604 65.8767C36.4665 65.8415 36.9307 65.3213 36.8955 64.7152C36.8603 64.109 36.34 63.6448 35.7339 63.68C35.7141 63.6812 35.6932 63.6834 35.6735 63.6856L35.6789 63.69Z" fill="black"/>
<path d="M47.7842 60.026C46.8525 60.5363 45.8966 60.9973 44.9177 61.4098C44.3545 61.6386 44.084 62.2799 44.3116 62.8431C44.5404 63.4063 45.1817 63.6768 45.7449 63.4492C45.7527 63.4458 45.7614 63.4426 45.7692 63.4393C46.8174 62.9981 47.8426 62.5031 48.8403 61.9564C49.3727 61.665 49.5685 60.9962 49.2771 60.4627C48.9843 59.9302 48.3166 59.7344 47.7842 60.026Z" fill="black"/>
<path d="M33.0005 9.90091C20.2429 9.90091 9.90088 20.2429 9.90088 33.0005C9.90088 45.7581 20.2429 56.1001 33.0005 56.1001C45.7581 56.1001 56.1001 45.7581 56.1001 33.0005C56.0858 20.2495 45.7525 9.91625 33.0005 9.90091ZM34.1004 53.844V50.6002C34.1004 49.9931 33.6076 49.5003 33.0005 49.5003C32.3933 49.5003 31.9005 49.9931 31.9005 50.6002V53.844C21.2417 53.2731 12.7278 44.7592 12.157 34.1005H15.4008C16.0079 34.1005 16.5007 33.6077 16.5007 33.0005C16.5007 32.3934 16.0079 31.9006 15.4008 31.9006H12.1569C12.7278 21.2417 21.2417 12.7278 31.9004 12.157V15.4008C31.9004 16.008 32.3932 16.5008 33.0004 16.5008C33.6075 16.5008 34.1003 16.008 34.1003 15.4008V12.1569C44.7592 12.7278 53.2731 21.2417 53.8439 31.9004H50.6001C49.9929 31.9004 49.5001 32.3932 49.5001 33.0004C49.5001 33.6075 49.9929 34.1004 50.6001 34.1004H53.8439C53.2731 44.7594 44.7593 53.2731 34.1004 53.844Z" fill="#231F20"/>
<path d="M34.1005 29.9029V19.8006C34.1005 19.1935 33.6077 18.7007 33.0006 18.7007C32.3934 18.7007 31.9006 19.1935 31.9006 19.8006V29.9029C30.9689 30.2362 30.2363 30.9688 29.9031 31.9004H24.2008C23.5936 31.9004 23.1008 32.3932 23.1008 33.0004C23.1008 33.6075 23.5936 34.1003 24.2008 34.1003H29.9031C30.5059 35.8163 32.3847 36.7171 34.1007 36.1144C35.8167 35.5116 36.7175 33.6328 36.1147 31.9168C35.7846 30.9754 35.0432 30.2341 34.1005 29.9029ZM33.0006 34.1005C32.3934 34.1005 31.9006 33.6077 31.9006 33.0005C31.9006 32.3934 32.3934 31.9006 33.0006 31.9006C33.6077 31.9006 34.1005 32.3934 34.1005 33.0005C34.1005 33.6077 33.6077 34.1005 33.0006 34.1005Z" fill="#231F20"/>
</g>
<defs>
<clipPath id="clip0_138_7">
<rect width="66" height="66" fill="white"/>
</clipPath>
</defs>
</svg>
