<svg width="29" height="18" viewBox="0 0 29 18" fill="none" xmlns="http://www.w3.org/2000/svg">
<path d="M14.675 18C18.8703 18 17.3744 15.3624 17.6983 14.604C17.6934 14.0376 17.6886 13.4928 17.7079 13.1616C17.9738 13.236 18.6009 13.5516 19.8962 14.802C21.896 16.806 22.4071 18 24.0226 18H26.9963C27.9388 18 28.4294 17.6124 28.6746 17.2872C28.9115 16.9728 29.1435 16.4208 28.8897 15.5616C28.2264 13.4928 24.3573 9.9204 24.1169 9.5436C24.1531 9.474 24.2111 9.3816 24.2413 9.3336H24.2389C25.0026 8.3316 27.917 3.9948 28.346 2.2596C28.3472 2.2572 28.3484 2.2536 28.3484 2.25C28.5804 1.458 28.3677 0.9444 28.1478 0.654C27.8167 0.2196 27.2899 0 26.5782 0H23.6045C22.6089 0 21.8537 0.498 21.4718 1.4064C20.8326 3.0204 19.0371 6.3396 17.691 7.5144C17.6499 5.85 17.6777 4.5792 17.6995 3.6348C17.743 1.7928 17.8831 0 15.9583 0H11.2845C10.0786 0 8.92465 1.308 10.1741 2.8608C11.2664 4.2216 10.5668 4.98 10.8024 8.7552C9.88406 7.7772 8.25041 5.136 7.09526 1.7604C6.77143 0.8472 6.28085 0.00119991 4.89974 0.00119991H1.92606C0.720159 0.00119991 0 0.654 0 1.7472C0 4.2024 5.47248 18 14.675 18ZM4.89974 1.8012C5.16194 1.8012 5.18853 1.8012 5.38307 2.3496C6.56601 5.8092 9.21948 10.9284 11.1576 10.9284C12.6137 10.9284 12.6137 9.4464 12.6137 8.8884L12.6124 4.446C12.5327 2.976 11.9938 2.244 11.6397 1.8L15.8785 1.8048C15.881 1.8252 15.8544 6.7188 15.8906 7.9044C15.8906 9.588 17.2367 10.5528 19.338 8.4408C21.5552 5.9556 23.0886 2.2404 23.1502 2.0892C23.2408 1.8732 23.3194 1.8 23.6045 1.8H26.5782H26.5903C26.5891 1.8036 26.5891 1.8072 26.5879 1.8108C26.316 3.0708 23.6323 7.086 22.7345 8.3328C22.72 8.352 22.7068 8.3724 22.6935 8.3928C22.2983 9.0336 21.9769 9.7416 22.7478 10.7376H22.749C22.8191 10.8216 23.0016 11.0184 23.2674 11.292C24.0939 12.1392 26.9286 15.036 27.18 16.188C27.0132 16.2144 26.832 16.1952 24.0226 16.2012C23.4245 16.2012 22.9569 15.3132 21.1722 13.5252C19.5675 11.9748 18.526 11.3412 17.5774 11.3412C15.736 11.3412 15.8701 12.8256 15.887 14.6208C15.893 16.5672 15.881 15.9516 15.8942 16.074C15.7867 16.116 15.4786 16.2 14.675 16.2C7.00826 16.2 2.01548 4.1148 1.82336 1.8048C1.88981 1.7988 2.80451 1.8024 4.89974 1.8012Z" fill="black"/>
</svg>
