<svg width="18" height="18" viewBox="0 0 18 18" fill="none" xmlns="http://www.w3.org/2000/svg">
<g clip-path="url(#clip0_69_36)">
<path d="M15.8026 2.15085H2.20112C0.986965 2.15085 0 3.13781 0 4.35197V13.6481C0 14.8622 0.986965 15.8492 2.20112 15.8492H15.7989C17.013 15.8492 18 14.8622 18 13.6481V4.35569C18.0037 3.14154 17.0168 2.15085 15.8026 2.15085ZM16.9981 13.6481C16.9981 14.3073 16.4618 14.8436 15.8026 14.8436H2.20112C1.5419 14.8436 1.00559 14.3073 1.00559 13.6481V4.35569C1.00559 3.69647 1.5419 3.16016 2.20112 3.16016H15.7989C16.4581 3.16016 16.9944 3.69647 16.9944 4.35569V13.6481H16.9981Z" fill="black"/>
<path d="M11.3522 8.88456L15.7544 4.9367C15.9593 4.75048 15.9779 4.43391 15.7917 4.22534C15.6054 4.0205 15.2889 4.00188 15.0803 4.1881L9.00953 9.63689L7.82517 8.57916C7.82145 8.57544 7.81773 8.57171 7.81773 8.56799C7.79166 8.54192 7.76558 8.51957 7.73579 8.49722L2.91642 4.18437C2.70786 3.99815 2.39128 4.01677 2.20506 4.22534C2.01884 4.43391 2.03747 4.75048 2.24603 4.9367L6.70041 8.91808L2.26465 13.0708C2.06354 13.2607 2.05236 13.5773 2.24231 13.7821C2.34287 13.8864 2.47694 13.9423 2.61102 13.9423C2.73393 13.9423 2.85683 13.8976 2.95367 13.8082L7.45646 9.59592L8.67806 10.6872C8.7749 10.7728 8.89408 10.8138 9.01326 10.8138C9.13244 10.8138 9.25534 10.7691 9.34845 10.6834L10.6036 9.55868L15.0803 13.8119C15.1771 13.905 15.3038 13.9497 15.4267 13.9497C15.5607 13.9497 15.6911 13.8976 15.7917 13.7933C15.9816 13.5922 15.9742 13.2719 15.773 13.082L11.3522 8.88456Z" fill="black"/>
</g>
<defs>
<clipPath id="clip0_69_36">
<rect width="18" height="18" fill="white"/>
</clipPath>
</defs>
</svg>
