<svg width="14" height="14" viewBox="0 0 14 14" fill="none" xmlns="http://www.w3.org/2000/svg">
<g clip-path="url(#clip0_69_61)">
<path d="M10.0622 14C9.61032 14 9.16222 13.9201 8.72406 13.7609C6.79372 13.0597 5.00196 11.9176 3.54241 10.4581C2.08286 8.99854 0.940762 7.20675 0.23956 5.27642C0.0142297 4.65607 -0.0522676 4.0157 0.0419824 3.37304C0.130272 2.77107 0.36345 2.18667 0.716334 1.68302C1.07078 1.17715 1.54331 0.756406 2.08284 0.466274C2.65818 0.156892 3.28616 0 3.94938 0C4.15565 0 4.33393 0.144123 4.37716 0.345802L5.06384 3.55033C5.09493 3.69544 5.05033 3.84642 4.94542 3.95137L3.77206 5.12469C4.87895 7.32539 6.67503 9.12147 8.87573 10.2284L10.0491 9.055C10.154 8.95009 10.305 8.90555 10.4501 8.93658L13.6546 9.62327C13.8563 9.66649 14.0004 9.84477 14.0004 10.051C14.0004 10.7143 13.8435 11.3423 13.5341 11.9176C13.244 12.4571 12.8232 12.9297 12.3174 13.2841C11.8137 13.637 11.2294 13.8702 10.6274 13.9585C10.4387 13.9862 10.2501 14 10.0622 14ZM3.59983 0.894104C2.725 0.990678 1.94853 1.44921 1.4329 2.18514C0.853074 3.01267 0.717865 4.03049 1.06194 4.9777C2.41005 8.6888 5.31167 11.5904 9.02278 12.9385C9.96995 13.2826 10.9878 13.1474 11.8153 12.5676C12.5513 12.0519 13.0098 11.2755 13.1064 10.4006L10.4995 9.84203L9.27411 11.0674C9.14371 11.1978 8.94559 11.2325 8.77874 11.154C6.176 9.93128 4.0692 7.82448 2.84643 5.22173C2.76804 5.05486 2.80266 4.85673 2.93305 4.72636L4.15844 3.50098L3.59983 0.894104Z" fill="black"/>
<path d="M13.5625 7.43719C13.3209 7.43719 13.125 7.24131 13.125 6.99971C13.125 3.62252 10.3774 0.874964 7.00023 0.874964C6.75863 0.874964 6.56274 0.679082 6.56274 0.437482C6.56274 0.195883 6.75863 0 7.00023 0C8.86994 0 10.6277 0.72808 11.9498 2.05015C13.2719 3.37222 13.9999 5.13 13.9999 6.99971C13.9999 7.24131 13.8041 7.43719 13.5625 7.43719Z" fill="black"/>
<path d="M11.8125 7.43721C11.5709 7.43721 11.375 7.24132 11.375 6.99973C11.375 4.58745 9.4125 2.6249 7.00023 2.6249C6.75863 2.6249 6.56274 2.42902 6.56274 2.18742C6.56274 1.94582 6.75863 1.74994 7.00023 1.74994C9.89496 1.74994 12.25 4.10499 12.25 6.99973C12.25 7.24132 12.0542 7.43721 11.8125 7.43721Z" fill="black"/>
<path d="M10.0626 7.43719C9.821 7.43719 9.62512 7.2413 9.62512 6.9997C9.62512 5.55232 8.44761 4.37481 7.00023 4.37481C6.75863 4.37481 6.56274 4.17893 6.56274 3.93733C6.56274 3.69573 6.75863 3.49985 7.00023 3.49985C8.93007 3.49985 10.5001 5.06986 10.5001 6.9997C10.5001 7.2413 10.3042 7.43719 10.0626 7.43719Z" fill="black"/>
</g>
<defs>
<clipPath id="clip0_69_61">
<rect width="14" height="14" fill="white"/>
</clipPath>
</defs>
</svg>
