<svg width="20" height="20" viewBox="0 0 20 20" fill="none" xmlns="http://www.w3.org/2000/svg">
<path d="M10.1972 20C10.131 20 10.0648 20 9.99809 19.9997C8.43034 20.0035 6.98177 19.9637 5.57303 19.8779C4.28147 19.7993 3.10254 19.353 2.16347 18.5873C1.25737 17.8485 0.638605 16.8495 0.324414 15.6184C0.0509663 14.5466 0.0364699 13.4945 0.0225839 12.4769C0.0125127 11.7468 0.00213631 10.8816 0 10.0018C0.00213631 9.11832 0.0125127 8.25314 0.0225839 7.52301C0.0364699 6.50555 0.0509663 5.45345 0.324414 4.38152C0.638605 3.15043 1.25737 2.15144 2.16347 1.41261C3.10254 0.646918 4.28147 0.200598 5.57318 0.122015C6.98193 0.0364125 8.4308 -0.00356564 10.0019 0.000249068C11.5701 -0.00310788 13.0182 0.0364125 14.427 0.122015C15.7185 0.200598 16.8975 0.646918 17.8365 1.41261C18.7428 2.15144 19.3614 3.15043 19.6756 4.38152C19.949 5.4533 19.9635 6.50555 19.9774 7.52301C19.9875 8.25314 19.998 9.11832 20 9.99814C19.998 10.8816 19.9875 11.7468 19.9774 12.4769C19.9716 12.9085 19.6152 13.2533 19.1856 13.2475C18.7541 13.2416 18.4092 12.8869 18.415 12.4556C18.4249 11.7297 18.4355 10.8702 18.4374 9.99814C18.4355 9.12976 18.4249 8.27023 18.415 7.54437C18.4023 6.618 18.3892 5.66005 18.1616 4.76787C17.9319 3.86791 17.4903 3.14647 16.8491 2.62355C16.1556 2.0579 15.3087 1.74098 14.3321 1.68162C12.9564 1.598 11.5404 1.5594 10.0019 1.5626C8.45979 1.55894 7.04357 1.598 5.66794 1.68162C4.69134 1.74098 3.8446 2.0579 3.15091 2.62339C2.50971 3.14631 2.0681 3.86775 1.83845 4.76787C1.61078 5.66005 1.59766 6.618 1.58499 7.54437C1.57507 8.27023 1.5647 9.12976 1.56256 10.0018C1.5647 10.8702 1.57507 11.7297 1.58499 12.4556C1.59766 13.3819 1.61078 14.3399 1.83845 15.2321C2.0681 16.132 2.50971 16.8535 3.15091 17.3764C3.8446 17.942 4.69134 18.259 5.66794 18.3183C7.04357 18.4019 8.4601 18.441 9.99825 18.4372C11.5405 18.4409 12.9564 18.4019 14.3321 18.3183C15.3087 18.259 16.1554 17.942 16.8491 17.3764C17.311 16.9997 17.6719 16.5163 17.9217 15.9395C18.0932 15.5437 18.5531 15.3616 18.9491 15.5331C19.3451 15.7046 19.527 16.1645 19.3556 16.5605C19.0054 17.3691 18.4944 18.051 17.8365 18.5873C16.8975 19.3532 15.7185 19.7993 14.427 19.8779C13.0779 19.96 11.692 20 10.1972 20ZM14.8439 9.99997C14.8439 7.30755 12.6534 5.11715 9.96086 5.11715C7.2685 5.11715 5.07786 7.30755 5.07786 9.99997C5.07786 12.6924 7.2685 14.8828 9.96086 14.8828C12.6534 14.8828 14.8439 12.6924 14.8439 9.99997ZM13.2813 9.99997C13.2813 11.8307 11.7918 13.3203 9.96086 13.3203C8.13004 13.3203 6.64042 11.8307 6.64042 9.99997C6.64042 8.16922 8.13004 6.67965 9.96086 6.67965C11.7918 6.67965 13.2813 8.16922 13.2813 9.99997ZM15.3908 3.55464C14.7436 3.55464 14.2188 4.07924 14.2188 4.72652C14.2188 5.3738 14.7436 5.8984 15.3908 5.8984C16.0381 5.8984 16.5627 5.3738 16.5627 4.72652C16.5627 4.07924 16.0381 3.55464 15.3908 3.55464Z" fill="black"/>
</svg>
